<svg width="60" height="60" viewBox="0 0 60 60" fill="none" xmlns="http://www.w3.org/2000/svg">
    <path d="M7.9125 27.1875C11.3034 27.1875 14.0625 24.4294 14.0625 21.0375C14.0625 19.995 13.7944 18.9619 13.2881 18.0506L9.7125 11.6128C9.26625 10.8113 8.41875 10.3125 7.5 10.3125C6.58125 10.3125 5.73375 10.8112 5.2875 11.6137L1.71187 18.0516C1.20562 18.9628 0.9375 19.995 0.9375 21.0375C0.9375 24.4294 3.69562 27.1875 7.0875 27.1875H7.9125ZM2.8125 21.0375C2.8125 20.3128 2.99812 19.5947 3.35062 18.9619L6.92625 12.5241C7.15781 12.1078 7.84219 12.1078 8.07375 12.5241L11.6494 18.9619C12.0019 19.5956 12.1875 20.3128 12.1875 21.0375C12.1875 23.3953 10.2703 25.3125 7.9125 25.3125H7.0875C4.72969 25.3125 2.8125 23.3953 2.8125 21.0375Z" fill="#3C3CF1"/>
    <path d="M13.4625 31.3013C13.0162 30.4988 12.1687 30 11.25 30C10.3312 30 9.48375 30.4988 9.0375 31.3013L5.46188 37.7391C4.95563 38.6503 4.6875 39.6825 4.6875 40.725C4.6875 44.1169 7.44563 46.875 10.8375 46.875H11.6634C15.0544 46.875 17.8134 44.1169 17.8134 40.725C17.8134 39.6825 17.5453 38.6494 17.0391 37.7381L13.4625 31.3013ZM11.6625 45H10.8375C8.47969 45 6.5625 43.0828 6.5625 40.725C6.5625 40.0003 6.74812 39.2822 7.10062 38.6494L10.6762 32.2116C10.9078 31.7953 11.5922 31.7953 11.8238 32.2116L15.3994 38.6494C15.7519 39.2831 15.9375 40.0003 15.9375 40.725C15.9375 43.0828 14.0203 45 11.6625 45Z" fill="#3C3CF1"/>
    <path d="M51.9506 12.1875H33.2006L30 8.98688L28.9819 10.005L17.1938 0.9375H6.5625V6.5625H13.6237L22.17 16.8178L21.1744 17.8125L24.375 21.0131V54.375C24.375 56.9597 26.4778 59.0625 29.0625 59.0625H54.375C56.9597 59.0625 59.0625 56.9597 59.0625 54.375V19.2994L51.9506 12.1875ZM14.5013 4.6875H8.4375V2.8125H16.5562L27.645 11.3419L23.5003 15.4866L14.5013 4.6875ZM30 11.6381L31.4869 13.125L25.3125 19.2994L23.8256 17.8125L30 11.6381ZM57.1875 54.375C57.1875 55.9256 55.9256 57.1875 54.375 57.1875H29.0625C27.5119 57.1875 26.25 55.9256 26.25 54.375V21.0131L33.2006 14.0625H51.1744L57.1875 20.0756V54.375Z" fill="#3C3CF1"/>
    <path d="M28.125 42.797V53.4376C28.125 54.4716 28.9659 55.3126 30 55.3126H53.4375C54.4716 55.3126 55.3125 54.4716 55.3125 53.4376V20.8529L49.9303 15.4707L28.125 42.797ZM53.4375 21.6291V53.4376H30V43.4532L50.0878 18.2795L53.4375 21.6291Z" fill="#3C3CF1"/>
    <path d="M33.9778 15.9375L28.125 21.7903V39.2109L46.965 15.9375H33.9778ZM30 22.5666L34.7541 17.8125H43.035L30 33.9141V22.5666Z" fill="#3C3CF1"/>
    <path d="M45.9375 40.3125C49.0397 40.3125 51.5625 37.7897 51.5625 34.6875C51.5625 31.5853 49.0397 29.0625 45.9375 29.0625C42.8353 29.0625 40.3125 31.5853 40.3125 34.6875C40.3125 37.7897 42.8353 40.3125 45.9375 40.3125ZM45.9375 30.9375C48.0056 30.9375 49.6875 32.6194 49.6875 34.6875C49.6875 36.7556 48.0056 38.4375 45.9375 38.4375C43.8694 38.4375 42.1875 36.7556 42.1875 34.6875C42.1875 32.6194 43.8694 30.9375 45.9375 30.9375Z" fill="#3C3CF1"/>
    <path d="M31.875 49.6875H51.5625V51.5625H31.875V49.6875Z" fill="#3C3CF1"/>
    <path d="M31.875 45.9375H33.75V47.8125H31.875V45.9375Z" fill="#3C3CF1"/>
    <path d="M35.625 45.9375H51.5625V47.8125H35.625V45.9375Z" fill="#3C3CF1"/>
    <path d="M31.875 42.1875H51.5625V44.0625H31.875V42.1875Z" fill="#3C3CF1"/>
</svg>
