<svg width="60" height="60" viewBox="0 0 60 60" fill="none" xmlns="http://www.w3.org/2000/svg">
    <g clip-path="url(#clip0)">
        <path d="M57.2467 9.18418L46.8051 4.83406C45.6597 4.35699 44.346 4.35711 43.2008 4.83418L38.1875 6.92234C37.7394 7.10914 37.5274 7.62359 37.7141 8.07172C37.9007 8.51984 38.4152 8.73195 38.8634 8.54516L43.8767 6.45687C44.5921 6.15875 45.4133 6.15863 46.1293 6.45676L56.5703 10.8066C57.5859 11.2303 58.2422 12.1829 58.2422 13.2332V50.8211C58.2422 52.2828 56.9868 53.4719 55.4438 53.4719H54.0188C53.5333 53.4719 53.1399 53.8653 53.1399 54.3508C53.1399 54.8363 53.5333 55.2297 54.0188 55.2297H55.4438C57.9561 55.2297 60.0001 53.2521 60.0001 50.8211V13.2332C60.0001 11.4712 58.9194 9.88191 57.2467 9.18418Z" fill="#3C3CF1"/>
        <path d="M50.1879 53.472H35.4199C36.028 52.7809 36.3609 51.904 36.3609 50.9759C36.3609 50.0498 36.0257 49.201 35.4709 48.5429C35.8207 48.3644 36.1446 48.1309 36.4305 47.8451C37.1445 47.131 37.5375 46.1817 37.5375 45.1716C37.5375 44.2088 37.1752 43.3295 36.5804 42.6613C36.8749 42.4945 37.1491 42.2878 37.3948 42.0419C38.1087 41.3281 38.5018 40.3788 38.5018 39.3685C38.5018 38.4085 38.1417 37.5314 37.5504 36.8638C37.8498 36.6957 38.1287 36.4864 38.3788 36.2369C39.0922 35.5218 39.485 34.5727 39.485 33.5641C39.485 31.4789 37.7891 29.7825 35.7045 29.7825H31.7634V13.2333C31.7634 12.1828 32.4198 11.2302 33.4349 10.8068L35.0334 10.1411C35.4816 9.95458 35.6936 9.44013 35.507 8.99189C35.3203 8.54376 34.8059 8.33142 34.3577 8.51833L32.7586 9.18419C31.0862 9.88181 30.0056 11.4712 30.0056 13.2333V29.7826H26.3333C27.5562 25.9182 27.4521 21.8852 26.025 17.2044C25.8082 16.4955 25.377 15.8884 24.7775 15.4486C24.1816 15.0115 23.4755 14.7802 22.7352 14.7802C21.7815 14.7802 20.8948 15.1611 20.238 15.8526C19.5817 16.544 19.2475 17.4492 19.2969 18.4012C19.5717 23.686 17.134 25.505 13.76 28.0228C12.6492 28.8517 11.4352 29.7582 10.242 30.87V29.718C10.242 29.2325 9.84855 28.8391 9.36305 28.8391H0.878906C0.393398 28.8391 0 29.2325 0 29.718V54.645C0 55.1305 0.393398 55.5239 0.878906 55.5239H9.36328C9.84879 55.5239 10.2422 55.1305 10.2422 54.645V52.4339C11.9115 52.5927 13.1307 52.9254 14.3153 53.8332C15.0929 54.4292 16.0515 54.7575 17.0145 54.7575H32.515C33.1482 55.0661 33.8503 55.2297 34.562 55.2297H50.1878C50.6733 55.2297 51.0667 54.8363 51.0667 54.3508C51.0667 53.8653 50.6733 53.472 50.1879 53.472ZM15.3846 52.438C13.7273 51.168 11.9562 50.8152 10.2422 50.6672V40.4045C10.2422 39.919 9.84879 39.5256 9.36328 39.5256C8.87777 39.5256 8.48438 39.919 8.48438 40.4045V53.7662H1.75781V30.597H8.48438V36.5749C8.48438 37.0604 8.87777 37.4538 9.36328 37.4538C9.84879 37.4538 10.2422 37.0604 10.2422 36.5749V33.3669C11.7124 31.7444 13.2867 30.5696 14.8116 29.4317C18.1876 26.9125 21.3763 24.5329 21.0527 18.31C21.0285 17.8442 21.192 17.4014 21.5133 17.0631C21.8346 16.7245 22.2687 16.5382 22.7355 16.5382C23.0992 16.5382 23.4457 16.6515 23.7379 16.8659C24.0295 17.0799 24.2392 17.3748 24.3442 17.718C25.7977 22.4858 25.7749 26.4971 24.2726 30.3419C24.1669 30.6124 24.2017 30.9175 24.3654 31.1574C24.5291 31.3973 24.8007 31.5408 25.0911 31.5408H35.7047C36.8201 31.5408 37.7275 32.4486 37.7275 33.5646C37.7275 34.1042 37.5169 34.6125 37.1359 34.9944C36.7527 35.3767 36.2446 35.5872 35.7047 35.5872H32.0941C31.6086 35.5872 31.2152 35.9806 31.2152 36.4661C31.2152 36.9517 31.6086 37.345 32.0941 37.345H34.7215C35.8368 37.345 36.7441 38.2529 36.7441 39.369C36.7441 39.9096 36.5339 40.4176 36.1519 40.7995C35.7701 41.1814 35.2621 41.3917 34.7215 41.3917H32.0941C31.6086 41.3917 31.2152 41.7851 31.2152 42.2706C31.2152 42.7561 31.6086 43.1495 32.0941 43.1495H33.7569C34.8723 43.1495 35.7797 44.0568 35.7797 45.1721C35.7797 45.7126 35.5693 46.2207 35.1875 46.6026C34.8048 46.9854 34.2967 47.1959 33.7569 47.1959H32.5804H31.1296C30.6441 47.1959 30.2507 47.5893 30.2507 48.0749C30.2507 48.5604 30.6441 48.9538 31.1296 48.9538H32.5804C33.6957 48.9538 34.6031 49.8611 34.6031 50.9764C34.6031 51.5169 34.3925 52.0255 34.0117 52.4073C33.6547 52.7634 33.0908 52.9906 32.6688 52.9981C32.6396 52.9986 17.0145 53.0002 17.0145 53.0002C16.436 52.9997 15.8571 52.8002 15.3846 52.438Z" fill="#3C3CF1"/>
        <path d="M48.1749 13.6236C48.1749 11.7767 46.6723 10.2742 44.8254 10.2742C42.9785 10.2742 41.476 11.7767 41.476 13.6236C41.476 15.4705 42.9785 16.9731 44.8254 16.9731C46.6723 16.9731 48.1749 15.4705 48.1749 13.6236ZM43.2338 13.6236C43.2338 12.746 43.9478 12.032 44.8254 12.032C45.703 12.032 46.417 12.746 46.417 13.6236C46.417 14.5012 45.703 15.2153 44.8254 15.2153C43.9478 15.2153 43.2338 14.5014 43.2338 13.6236Z" fill="#3C3CF1"/>
        <path d="M45.3745 43.6132H43.7982C42.9679 43.6132 42.2925 42.9376 42.2925 42.1074C42.2925 41.6218 41.8991 41.2284 41.4136 41.2284C40.9281 41.2284 40.5347 41.6218 40.5347 42.1074C40.5347 43.8765 41.9498 45.3203 43.7074 45.3687V47.3138C43.7074 47.7993 44.1008 48.1927 44.5863 48.1927C45.0718 48.1927 45.4652 47.7993 45.4652 47.3138V45.3687C47.2229 45.3203 48.6381 43.8765 48.6381 42.1074V40.8906C48.6381 39.7617 47.9168 38.769 46.8431 38.42L42.8728 37.1304C42.5257 37.0175 42.2925 36.6967 42.2925 36.3318V34.5895C42.2925 33.9152 42.841 33.3666 43.5153 33.3666H45.6575C46.3318 33.3666 46.8804 33.9152 46.8804 34.5895C46.8804 35.075 47.2738 35.4684 47.7593 35.4684C48.2448 35.4684 48.6382 35.075 48.6382 34.5895C48.6382 32.946 47.3011 31.6088 45.6575 31.6088H45.4652V29.666C45.4652 29.1805 45.0718 28.7871 44.5863 28.7871C44.1008 28.7871 43.7074 29.1805 43.7074 29.666V31.6088H43.5152C41.8718 31.6088 40.5345 32.9459 40.5345 34.5895V36.3318C40.5345 37.4606 41.2558 38.4533 42.3295 38.8022L46.2997 40.0918C46.6469 40.2047 46.8801 40.5257 46.8801 40.8906V42.1074C46.8804 42.9376 46.2048 43.6132 45.3745 43.6132Z" fill="#3C3CF1"/>
    </g>
    <defs>
        <clipPath id="clip0">
            <rect width="60" height="60" fill="white"/>
        </clipPath>
    </defs>
</svg>
