<svg width="60" height="60" viewBox="0 0 60 60" fill="none" xmlns="http://www.w3.org/2000/svg">
    <path d="M29.2969 15.5273C29.7823 15.5273 30.1758 15.1338 30.1758 14.6484C30.1758 14.163 29.7823 13.7695 29.2969 13.7695H17.6987C17.2133 13.7695 16.8198 14.163 16.8198 14.6484C16.8198 15.1338 17.2133 15.5273 17.6987 15.5273H29.2969Z" fill="#3C3CF1"/>
    <path d="M12.8354 20.625C12.8354 21.1104 13.2289 21.5039 13.7143 21.5039H33.2812C33.7667 21.5039 34.1601 21.1104 34.1601 20.625C34.1601 20.1396 33.7667 19.7461 33.2812 19.7461H13.7143C13.2289 19.7461 12.8354 20.1396 12.8354 20.625Z" fill="#3C3CF1"/>
    <path d="M13.7143 25.6055H33.2812C33.7667 25.6055 34.1601 25.212 34.1601 24.7266C34.1601 24.2412 33.7667 23.8477 33.2812 23.8477H13.7143C13.2289 23.8477 12.8354 24.2412 12.8354 24.7266C12.8354 25.212 13.2289 25.6055 13.7143 25.6055Z" fill="#3C3CF1"/>
    <path d="M13.7143 33.8086H20.3906C20.876 33.8086 21.2695 33.4151 21.2695 32.9297C21.2695 32.4443 20.876 32.0508 20.3906 32.0508H13.7143C13.2289 32.0508 12.8354 32.4443 12.8354 32.9297C12.8354 33.4151 13.2289 33.8086 13.7143 33.8086Z" fill="#3C3CF1"/>
    <path d="M53.2603 39.1971C53.7458 39.1971 54.1392 38.8036 54.1392 38.3182V34.3685C54.1392 33.8284 53.865 33.336 53.4057 33.0514L49.1788 30.4334V1.23047C49.1788 0.551953 48.6268 0 47.9483 0H15.1351C14.4566 0 13.9046 0.551953 13.9046 1.23047V4.02199H11.1131C10.4346 4.02199 9.88265 4.57395 9.88265 5.25246V8.04398H7.09125C6.41273 8.04398 5.86078 8.59594 5.86078 9.27445V54.1535C5.86078 54.832 6.41273 55.384 7.09125 55.384H13.5937C14.0791 55.384 14.4727 54.9905 14.4727 54.5051C14.4727 54.0197 14.0791 53.6262 13.5937 53.6262H7.61859V9.8018H39.3771V25.9703L34.0345 29.2793C34.1138 29.1473 34.1602 28.9934 34.1602 28.8281C34.1602 28.3427 33.7668 27.9492 33.2812 27.9492H13.7143C13.2289 27.9492 12.8354 28.3427 12.8354 28.8281C12.8354 29.3135 13.2289 29.707 13.7143 29.707H33.2812C33.3043 29.707 33.3268 29.7053 33.3495 29.7036L29.5598 32.0508H23.2031C22.7177 32.0508 22.3242 32.4443 22.3242 32.9297C22.3242 33.4151 22.7177 33.8086 23.2031 33.8086H27.3154C27.2476 33.984 27.2107 34.1729 27.2107 34.3686V36.1523H13.7143C13.2289 36.1523 12.8354 36.5459 12.8354 37.0312C12.8354 37.5166 13.2289 37.9102 13.7143 37.9102H27.2106V40.2539H13.7143C13.2289 40.2539 12.8354 40.6474 12.8354 41.1328C12.8354 41.6182 13.2289 42.0117 13.7143 42.0117H27.2106V44.0836C27.2106 44.1744 27.212 44.265 27.2143 44.3555H13.7143C13.2289 44.3555 12.8354 44.749 12.8354 45.2344C12.8354 45.7198 13.2289 46.1133 13.7143 46.1133H27.4048C27.8599 48.4696 29.1006 50.6205 30.9602 52.2053L32.6276 53.6262H17.6953C17.2099 53.6262 16.8164 54.0197 16.8164 54.5051C16.8164 54.9905 17.2099 55.384 17.6953 55.384H34.6903L39.6702 59.6278C39.9612 59.8759 40.3181 59.9999 40.675 59.9999C41.0318 59.9999 41.3887 59.8758 41.6797 59.6278L50.3897 52.2052C52.7726 50.1745 54.1392 47.2143 54.1392 44.0835V42.4198C54.1392 41.9344 53.7458 41.5409 53.2603 41.5409C52.7748 41.5409 52.3814 41.9344 52.3814 42.4198V44.0835C52.3814 46.6985 51.2399 49.1712 49.2496 50.8672L40.6748 58.1746L32.1002 50.8672C30.1099 49.1712 28.9684 46.6985 28.9684 44.0835V34.4846L40.6748 27.2339L52.3814 34.4846V38.3181C52.3814 38.8037 52.7749 39.1971 53.2603 39.1971ZM41.1349 25.5094V9.27445C41.1349 8.59594 40.583 8.04398 39.9045 8.04398H11.6405V5.7798H43.3991V11.9531C43.3991 12.4385 43.7925 12.832 44.278 12.832C44.7635 12.832 45.1569 12.4385 45.1569 11.9531V5.25246C45.1569 4.57395 44.605 4.02199 43.9264 4.02199H15.6625V1.75781H47.421V29.3447L45.1569 27.9423V16.0547C45.1569 15.5693 44.7635 15.1758 44.278 15.1758C43.7925 15.1758 43.3991 15.5693 43.3991 16.0547V26.8536L41.4906 25.6716C41.3773 25.6014 41.2577 25.5479 41.1349 25.5094Z" fill="#3C3CF1"/>
    <path d="M32.6243 41.1013C32.6243 45.5405 36.2357 49.1521 40.6749 49.1521C45.1142 49.1521 48.7257 45.5406 48.7257 41.1013C48.7257 36.662 45.1142 33.0505 40.6749 33.0505C36.2357 33.0505 32.6243 36.6621 32.6243 41.1013ZM46.9679 41.1013C46.9679 44.5712 44.1449 47.3943 40.6749 47.3943C37.2051 47.3943 34.3821 44.5714 34.3821 41.1013C34.3821 37.6313 37.2051 34.8083 40.6749 34.8083C44.1449 34.8083 46.9679 37.6314 46.9679 41.1013Z" fill="#3C3CF1"/>
    <path d="M38.8699 40.234C38.5268 39.8907 37.9703 39.8907 37.627 40.234C37.2838 40.5772 37.2838 41.1337 37.627 41.4769L39.7479 43.5976C39.9196 43.7692 40.1446 43.8551 40.3695 43.8551C40.5943 43.8551 40.8193 43.7693 40.991 43.5976L44.2782 40.3104C44.6215 39.9671 44.6215 39.4106 44.2782 39.0675C43.9349 38.7242 43.3785 38.7242 43.0352 39.0675L40.3696 41.7333L38.8699 40.234Z" fill="#3C3CF1"/>
</svg>
