<svg width="177" height="35" viewBox="0 0 177 35" fill="none" xmlns="http://www.w3.org/2000/svg">
    <g clip-path="url(#clip0)">
        <path d="M13.3039 5.2635C14.7769 8.23265 12.9816 11.7416 10.6799 14.2159C8.97668 16.0604 6.99722 17.7249 5.52414 19.6594C4.97173 20.3792 4.5114 21.099 4.14313 21.9087C3.45262 23.5283 3.22245 25.2828 3.54469 26.9923C3.36055 26.8123 3.22245 26.5874 3.03831 26.3625C2.16367 25.1928 1.6573 23.7982 1.47316 22.3586C1.33506 20.964 1.5192 19.4794 2.11764 18.1748C2.30177 17.8149 2.48591 17.455 2.67004 17.0951C2.90021 16.7352 3.13038 16.3753 3.40658 16.0604C4.28123 14.8907 5.38604 13.8111 6.49085 12.7314C7.18136 12.0566 7.87186 11.3818 8.56237 10.662C9.89735 9.22237 11.0482 7.46787 11.6006 5.6234C11.9228 4.5437 12.0149 3.46401 11.8308 2.42931C12.8895 2.87918 13.8563 3.41903 14.7769 4.04885C16.1579 4.94859 17.4009 6.02828 18.4596 7.24293C18.8739 7.73779 19.2882 8.23265 19.6565 8.72751C17.7691 7.28792 15.6516 6.07327 13.3039 5.2635ZM4.46536 29.7365C4.6495 30.0964 4.87967 30.4563 5.15587 30.8162C7.18136 33.6054 10.4958 34.955 13.8102 34.955C16.7564 34.955 19.7486 33.9203 21.9582 31.9409C24.352 29.8265 25.5949 26.8123 25.9632 23.7982C26.3775 20.0643 25.3647 16.3303 23.2932 13.0913C23.2472 13.0013 23.2472 12.9563 23.2011 12.8663C22.4185 10.527 21.1296 8.32263 19.4724 6.43317C18.3215 5.12854 16.9866 3.95887 15.5135 2.96915C14.0864 2.02442 12.5213 1.21466 10.818 0.67481L9.20684 0.0899773L9.94339 1.61954C10.5418 2.78921 10.4958 4.09383 10.1275 5.35347C9.66718 6.97301 8.6084 8.54756 7.41153 9.8072C6.81309 10.482 6.12258 11.1568 5.43207 11.8316C4.28123 12.9563 3.17641 14.036 2.2097 15.2956C1.9335 15.6555 1.6573 16.0604 1.42713 16.4653C1.19696 16.8702 0.966792 17.2751 0.782657 17.7249C0.0921495 19.2545 -0.13802 20.964 0.0461157 22.6285C0.230251 24.2931 0.82869 25.9126 1.84143 27.2622C2.62401 28.2519 3.49865 29.0617 4.46536 29.7365Z" fill="#7D410D"/>
        <path fill-rule="evenodd" clip-rule="evenodd" d="M45.4354 20.3342H43.64V28.9717H39.3589V21.2339C39.3589 21.009 39.2668 20.7841 39.0367 20.6041C38.8065 20.4242 38.5763 20.3342 38.3001 20.3342H36.5048V28.9717H32.2237V16.8252H47.2307C47.9212 16.8252 48.4736 16.9602 48.9339 17.1851C49.3943 17.455 49.7625 17.7699 50.0387 18.1748C50.3149 18.5797 50.4991 19.0296 50.6372 19.4794C50.7293 19.9743 50.8213 20.4242 50.8213 20.874V28.9267H46.5402V21.2339C46.5402 21.009 46.4481 20.7841 46.2179 20.6041C45.8957 20.4242 45.6655 20.3342 45.4354 20.3342ZM62.0536 16.8252C62.7441 16.8252 63.2965 16.9602 63.7568 17.1851C64.2172 17.455 64.5854 17.7699 64.8616 18.1748C65.1378 18.5797 65.322 19.0296 65.4601 19.4794C65.5521 19.9743 65.6442 20.4242 65.6442 20.874V24.8779C65.6442 25.3278 65.5982 25.8226 65.4601 26.2725C65.368 26.7674 65.1378 27.1722 64.8616 27.5771C64.5854 27.982 64.2172 28.2969 63.7568 28.5668C63.2965 28.8368 62.7441 28.9267 62.0536 28.9267H55.6549C54.9644 28.9267 54.412 28.7918 53.9516 28.5668C53.4913 28.2969 53.123 27.982 52.8468 27.5771C52.5706 27.1722 52.3865 26.7224 52.2484 26.2725C52.1563 25.7776 52.0642 25.3278 52.0642 24.8779V20.874C52.0642 20.4242 52.1103 19.9293 52.2484 19.4794C52.3404 18.9846 52.5706 18.5797 52.8468 18.1748C53.123 17.7699 53.4913 17.455 53.9516 17.1851C54.412 16.9152 54.9644 16.8252 55.6549 16.8252H62.0536ZM60.3043 25.5077C60.5805 25.5077 60.8107 25.4177 61.0408 25.2378C61.271 25.0578 61.3631 24.8329 61.3631 24.608V21.2339C61.3631 21.009 61.271 20.7841 61.0408 20.6041C60.8107 20.4242 60.5805 20.3342 60.3043 20.3342H57.4502C57.174 20.3342 56.9438 20.4242 56.7136 20.6041C56.4835 20.7841 56.3914 21.009 56.3914 21.2339V24.608C56.3914 24.8329 56.4835 25.0578 56.7136 25.2378C56.9438 25.4177 57.174 25.5077 57.4502 25.5077H60.3043ZM75.3573 28.9717H71.0762V20.3342H67.0252V16.8702H79.4544V20.3342H75.4034V28.9717H75.3573ZM90.7326 16.8252C91.4231 16.8252 91.9756 16.9602 92.4359 17.1851C92.8962 17.455 93.2645 17.7699 93.5407 18.1748C93.8169 18.5797 94.001 19.0296 94.1391 19.4794C94.2312 19.9743 94.3233 20.4242 94.3233 20.874V24.8779C94.3233 25.3278 94.2772 25.8226 94.1391 26.2725C94.0471 26.7674 93.8169 27.1722 93.5407 27.5771C93.2645 27.982 92.8962 28.2969 92.4359 28.5668C91.9756 28.8368 91.4231 28.9267 90.7326 28.9267H84.3339C83.6434 28.9267 83.091 28.7918 82.6307 28.5668C82.1703 28.2969 81.8021 27.982 81.5259 27.5771C81.2497 27.1722 81.0655 26.7224 80.9274 26.2725C80.8354 25.7776 80.7433 25.3278 80.7433 24.8779V20.874C80.7433 20.4242 80.7893 19.9293 80.9274 19.4794C81.0195 18.9846 81.2497 18.5797 81.5259 18.1748C81.8021 17.7699 82.1703 17.455 82.6307 17.1851C83.091 16.9152 83.6434 16.8252 84.3339 16.8252H90.7326ZM88.9834 25.5077C89.2596 25.5077 89.4897 25.4177 89.7199 25.2378C89.9501 25.0578 90.0421 24.8329 90.0421 24.608V21.2339C90.0421 21.009 89.9501 20.7841 89.7199 20.6041C89.4897 20.4242 89.2596 20.3342 88.9834 20.3342H86.1293C85.8531 20.3342 85.6229 20.4242 85.3927 20.6041C85.1625 20.7841 85.0705 21.009 85.0705 21.2339V24.608C85.0705 24.8329 85.1625 25.0578 85.3927 25.2378C85.6229 25.4177 85.8531 25.5077 86.1293 25.5077H88.9834ZM99.9394 28.9717H95.6583V16.8252H105.325C106.016 16.8252 106.568 16.9602 107.029 17.1851C107.489 17.455 107.857 17.7699 108.133 18.1748C108.41 18.5797 108.594 19.0296 108.732 19.4794C108.824 19.9743 108.916 20.4242 108.916 20.874V21.4139C108.916 21.8638 108.87 22.3586 108.778 22.8085C108.686 23.3034 108.502 23.7082 108.225 24.1131C107.949 24.518 107.627 24.8329 107.121 25.1028C106.66 25.3728 106.062 25.4627 105.325 25.4627H99.9394V28.9717ZM103.576 20.3342H99.9394V22.1337H103.576C103.852 22.1337 104.082 22.0437 104.313 21.8638C104.543 21.6838 104.635 21.4589 104.635 21.2339C104.635 21.009 104.543 20.7841 104.313 20.6041C104.082 20.4242 103.852 20.3342 103.576 20.3342ZM102.011 26.2275H106.844L108.916 28.9717H104.128L102.011 26.2275ZM120.24 16.8252C120.931 16.8252 121.483 16.9602 121.944 17.1851C122.404 17.455 122.772 17.7699 123.048 18.1748C123.325 18.5797 123.509 19.0296 123.647 19.4794C123.739 19.9743 123.831 20.4242 123.831 20.874V24.8779C123.831 25.3278 123.785 25.8226 123.647 26.2725C123.555 26.7674 123.325 27.1722 123.048 27.5771C122.772 27.982 122.404 28.2969 121.944 28.5668C121.483 28.8368 120.931 28.9267 120.24 28.9267H113.842C113.151 28.9267 112.599 28.7918 112.138 28.5668C111.678 28.2969 111.31 27.982 111.034 27.5771C110.757 27.1722 110.573 26.7224 110.435 26.2725C110.343 25.7776 110.251 25.3278 110.251 24.8779V20.874C110.251 20.4242 110.297 19.9293 110.435 19.4794C110.527 18.9846 110.757 18.5797 111.034 18.1748C111.31 17.7699 111.678 17.455 112.138 17.1851C112.599 16.9152 113.151 16.8252 113.842 16.8252H120.24ZM118.445 25.5077C118.721 25.5077 118.951 25.4177 119.182 25.2378C119.412 25.0578 119.504 24.8329 119.504 24.608V21.2339C119.504 21.009 119.412 20.7841 119.182 20.6041C118.951 20.4242 118.721 20.3342 118.445 20.3342H115.591C115.315 20.3342 115.085 20.4242 114.854 20.6041C114.624 20.7841 114.532 21.009 114.532 21.2339V24.608C114.532 24.8329 114.624 25.0578 114.854 25.2378C115.085 25.4177 115.315 25.5077 115.591 25.5077H118.445ZM129.447 28.9717H125.166V16.8252H129.447V28.9717ZM135.109 25.5077H142.429V28.9717H130.828V16.8252H135.109V25.5077ZM148.137 25.5077V28.9717H143.856V25.5077H148.137ZM153.891 25.0578C153.891 24.9229 153.937 24.8329 154.029 24.7429C154.121 24.653 154.259 24.608 154.443 24.608H158.218V25.4627H154.443C154.259 25.4627 154.121 25.4177 154.029 25.3278C153.937 25.3278 153.891 25.1928 153.891 25.0578ZM162.545 20.7391C162.545 20.2892 162.499 19.8393 162.361 19.3895C162.223 18.9396 162.039 18.4897 161.763 18.1298C161.487 17.7699 161.118 17.455 160.704 17.1851C160.244 16.9602 159.691 16.8252 159.047 16.8252H150.208V20.2892H157.574C157.758 20.2892 157.896 20.3342 157.988 20.4242C158.08 20.5141 158.126 20.6041 158.126 20.7391C158.126 20.874 158.08 20.964 157.988 21.054C157.896 21.144 157.758 21.189 157.574 21.189H153.016C152.326 21.189 151.773 21.3239 151.359 21.5489C150.899 21.7738 150.531 22.0887 150.3 22.4486C150.024 22.8085 149.84 23.2584 149.702 23.7082C149.564 24.1581 149.518 24.608 149.518 25.0578C149.518 25.5077 149.564 25.9576 149.702 26.4075C149.84 26.8573 150.024 27.3072 150.3 27.6671C150.577 28.027 150.945 28.3419 151.359 28.6118C151.82 28.8368 152.372 28.9717 153.016 28.9717H162.545V20.7391ZM163.926 25.4627V28.9717H165.676L176.954 20.0643V16.8252H175.021L163.926 25.4627ZM177 25.5077H171.154L166.873 28.9717H177V25.5077ZM163.926 16.8252V20.2892H169.45L173.87 16.8252H163.926Z" fill="black"/>
    </g>
    <defs>
        <clipPath id="clip0">
            <rect width="177" height="35" fill="white"/>
        </clipPath>
    </defs>
</svg>
