<svg width="177" height="35" viewBox="0 0 177 35" fill="none" xmlns="http://www.w3.org/2000/svg">
    <g clip-path="url(#clip0)">
        <path d="M13.3039 5.17352C14.7769 8.14267 12.9816 11.6517 10.6799 14.126C8.97668 15.9704 6.99722 17.635 5.52414 19.5694C4.97173 20.2892 4.5114 21.009 4.14313 21.8188C3.45262 23.4383 3.22245 25.1928 3.54469 26.9023C3.36055 26.7224 3.22245 26.4974 3.03831 26.2725C2.16367 25.1028 1.6573 23.7082 1.47316 22.2686C1.33506 20.874 1.5192 19.3895 2.11764 18.0848C2.30177 17.7249 2.48591 17.365 2.67004 17.0051C2.90021 16.6452 3.13038 16.2853 3.40658 15.9704C4.28123 14.8008 5.38604 13.7211 6.49085 12.6414C7.18136 11.9666 7.87186 11.2918 8.56237 10.572C9.89735 9.13239 11.0482 7.37789 11.6006 5.53342C11.9228 4.45373 12.0149 3.37404 11.8308 2.33933C12.8895 2.7892 13.8563 3.32905 14.7769 3.95887C16.1579 4.85861 17.4009 5.9383 18.4596 7.15296C18.8739 7.64782 19.2882 8.14267 19.6565 8.63753C17.7691 7.19794 15.6516 5.98329 13.3039 5.17352ZM4.46536 29.6465C4.6495 30.0064 4.87967 30.3663 5.15587 30.7262C7.18136 33.5154 10.4958 34.865 13.8102 34.865C16.7564 34.865 19.7486 33.8303 21.9582 31.8509C24.352 29.7365 25.5949 26.7224 25.9632 23.7082C26.3775 19.9743 25.3647 16.2404 23.2932 13.0013C23.2472 12.9113 23.2472 12.8663 23.2011 12.7764C22.4185 10.437 21.1296 8.23265 19.4724 6.34319C18.3215 5.03856 16.9866 3.86889 15.5135 2.87918C14.0864 1.93445 12.5213 1.12468 10.818 0.584833L9.20684 0L9.94339 1.52956C10.5418 2.69923 10.4958 4.00386 10.1275 5.2635C9.66718 6.88303 8.6084 8.45758 7.41153 9.71722C6.81309 10.392 6.12258 11.0668 5.43207 11.7416C4.28123 12.8663 3.17641 13.946 2.2097 15.2057C1.9335 15.5656 1.6573 15.9704 1.42713 16.3753C1.19696 16.7802 0.966792 17.1851 0.782657 17.635C0.0921495 19.1645 -0.13802 20.874 0.0461157 22.5386C0.230251 24.2031 0.82869 25.8226 1.84143 27.1722C2.62401 28.162 3.49865 28.9717 4.46536 29.6465Z" fill="white"/>
        <path fill-rule="evenodd" clip-rule="evenodd" d="M45.4354 14.509H43.64V23.1465H39.3589V15.4087C39.3589 15.1838 39.2668 14.9589 39.0367 14.7789C38.8065 14.599 38.5763 14.509 38.3001 14.509H36.5048V23.1465H32.2237V11H47.2307C47.9212 11 48.4736 11.135 48.9339 11.3599C49.3943 11.6298 49.7625 11.9447 50.0387 12.3496C50.3149 12.7545 50.4991 13.2044 50.6372 13.6542C50.7293 14.1491 50.8213 14.599 50.8213 15.0488V23.1015H46.5402V15.4087C46.5402 15.1838 46.4481 14.9589 46.2179 14.7789C45.8957 14.599 45.6655 14.509 45.4354 14.509ZM62.0536 11C62.7441 11 63.2965 11.135 63.7568 11.3599C64.2172 11.6298 64.5854 11.9447 64.8616 12.3496C65.1378 12.7545 65.322 13.2044 65.4601 13.6542C65.5521 14.1491 65.6442 14.599 65.6442 15.0488V19.0527C65.6442 19.5026 65.5982 19.9974 65.4601 20.4473C65.368 20.9422 65.1378 21.347 64.8616 21.7519C64.5854 22.1568 64.2172 22.4717 63.7568 22.7416C63.2965 23.0116 62.7441 23.1015 62.0536 23.1015H55.6549C54.9644 23.1015 54.412 22.9666 53.9516 22.7416C53.4913 22.4717 53.123 22.1568 52.8468 21.7519C52.5706 21.347 52.3865 20.8972 52.2484 20.4473C52.1563 19.9524 52.0642 19.5026 52.0642 19.0527V15.0488C52.0642 14.599 52.1103 14.1041 52.2484 13.6542C52.3404 13.1594 52.5706 12.7545 52.8468 12.3496C53.123 11.9447 53.4913 11.6298 53.9516 11.3599C54.412 11.09 54.9644 11 55.6549 11H62.0536ZM60.3043 19.6825C60.5805 19.6825 60.8107 19.5925 61.0408 19.4126C61.271 19.2326 61.3631 19.0077 61.3631 18.7828V15.4087C61.3631 15.1838 61.271 14.9589 61.0408 14.7789C60.8107 14.599 60.5805 14.509 60.3043 14.509H57.4502C57.174 14.509 56.9438 14.599 56.7136 14.7789C56.4835 14.9589 56.3914 15.1838 56.3914 15.4087V18.7828C56.3914 19.0077 56.4835 19.2326 56.7136 19.4126C56.9438 19.5925 57.174 19.6825 57.4502 19.6825H60.3043ZM75.3573 23.1465H71.0762V14.509H67.0252V11.045H79.4544V14.509H75.4034V23.1465H75.3573ZM90.7326 11C91.4231 11 91.9756 11.135 92.4359 11.3599C92.8962 11.6298 93.2645 11.9447 93.5407 12.3496C93.8169 12.7545 94.001 13.2044 94.1391 13.6542C94.2312 14.1491 94.3233 14.599 94.3233 15.0488V19.0527C94.3233 19.5026 94.2772 19.9974 94.1391 20.4473C94.0471 20.9422 93.8169 21.347 93.5407 21.7519C93.2645 22.1568 92.8962 22.4717 92.4359 22.7416C91.9756 23.0116 91.4231 23.1015 90.7326 23.1015H84.3339C83.6434 23.1015 83.091 22.9666 82.6307 22.7416C82.1703 22.4717 81.8021 22.1568 81.5259 21.7519C81.2497 21.347 81.0655 20.8972 80.9274 20.4473C80.8354 19.9524 80.7433 19.5026 80.7433 19.0527V15.0488C80.7433 14.599 80.7893 14.1041 80.9274 13.6542C81.0195 13.1594 81.2497 12.7545 81.5259 12.3496C81.8021 11.9447 82.1703 11.6298 82.6307 11.3599C83.091 11.09 83.6434 11 84.3339 11H90.7326ZM88.9834 19.6825C89.2596 19.6825 89.4897 19.5925 89.7199 19.4126C89.9501 19.2326 90.0421 19.0077 90.0421 18.7828V15.4087C90.0421 15.1838 89.9501 14.9589 89.7199 14.7789C89.4897 14.599 89.2596 14.509 88.9834 14.509H86.1293C85.8531 14.509 85.6229 14.599 85.3927 14.7789C85.1625 14.9589 85.0705 15.1838 85.0705 15.4087V18.7828C85.0705 19.0077 85.1625 19.2326 85.3927 19.4126C85.6229 19.5925 85.8531 19.6825 86.1293 19.6825H88.9834ZM99.9394 23.1465H95.6583V11H105.325C106.016 11 106.568 11.135 107.029 11.3599C107.489 11.6298 107.857 11.9447 108.133 12.3496C108.41 12.7545 108.594 13.2044 108.732 13.6542C108.824 14.1491 108.916 14.599 108.916 15.0488V15.5887C108.916 16.0386 108.87 16.5334 108.778 16.9833C108.686 17.4781 108.502 17.883 108.225 18.2879C107.949 18.6928 107.627 19.0077 107.121 19.2776C106.66 19.5476 106.062 19.6375 105.325 19.6375H99.9394V23.1465ZM103.576 14.509H99.9394V16.3085H103.576C103.852 16.3085 104.082 16.2185 104.313 16.0386C104.543 15.8586 104.635 15.6337 104.635 15.4087C104.635 15.1838 104.543 14.9589 104.313 14.7789C104.082 14.599 103.852 14.509 103.576 14.509ZM102.011 20.4023H106.844L108.916 23.1465H104.128L102.011 20.4023ZM120.24 11C120.931 11 121.483 11.135 121.944 11.3599C122.404 11.6298 122.772 11.9447 123.048 12.3496C123.325 12.7545 123.509 13.2044 123.647 13.6542C123.739 14.1491 123.831 14.599 123.831 15.0488V19.0527C123.831 19.5026 123.785 19.9974 123.647 20.4473C123.555 20.9422 123.325 21.347 123.048 21.7519C122.772 22.1568 122.404 22.4717 121.944 22.7416C121.483 23.0116 120.931 23.1015 120.24 23.1015H113.842C113.151 23.1015 112.599 22.9666 112.138 22.7416C111.678 22.4717 111.31 22.1568 111.034 21.7519C110.757 21.347 110.573 20.8972 110.435 20.4473C110.343 19.9524 110.251 19.5026 110.251 19.0527V15.0488C110.251 14.599 110.297 14.1041 110.435 13.6542C110.527 13.1594 110.757 12.7545 111.034 12.3496C111.31 11.9447 111.678 11.6298 112.138 11.3599C112.599 11.09 113.151 11 113.842 11H120.24ZM118.445 19.6825C118.721 19.6825 118.951 19.5925 119.182 19.4126C119.412 19.2326 119.504 19.0077 119.504 18.7828V15.4087C119.504 15.1838 119.412 14.9589 119.182 14.7789C118.951 14.599 118.721 14.509 118.445 14.509H115.591C115.315 14.509 115.085 14.599 114.854 14.7789C114.624 14.9589 114.532 15.1838 114.532 15.4087V18.7828C114.532 19.0077 114.624 19.2326 114.854 19.4126C115.085 19.5925 115.315 19.6825 115.591 19.6825H118.445ZM129.447 23.1465H125.166V11H129.447V23.1465ZM135.109 19.6825H142.429V23.1465H130.828V11H135.109V19.6825ZM148.137 19.6825V23.1465H143.856V19.6825H148.137ZM153.891 19.2326C153.891 19.0977 153.937 19.0077 154.029 18.9177C154.121 18.8278 154.259 18.7828 154.443 18.7828H158.218V19.6375H154.443C154.259 19.6375 154.121 19.5925 154.029 19.5026C153.937 19.5026 153.891 19.3676 153.891 19.2326ZM162.545 14.9139C162.545 14.464 162.499 14.0141 162.361 13.5643C162.223 13.1144 162.039 12.6645 161.763 12.3046C161.487 11.9447 161.118 11.6298 160.704 11.3599C160.244 11.135 159.691 11 159.047 11H150.208V14.464H157.574C157.758 14.464 157.896 14.509 157.988 14.599C158.08 14.6889 158.126 14.7789 158.126 14.9139C158.126 15.0488 158.08 15.1388 157.988 15.2288C157.896 15.3188 157.758 15.3638 157.574 15.3638H153.016C152.326 15.3638 151.773 15.4987 151.359 15.7236C150.899 15.9486 150.531 16.2635 150.3 16.6234C150.024 16.9833 149.84 17.4332 149.702 17.883C149.564 18.3329 149.518 18.7828 149.518 19.2326C149.518 19.6825 149.564 20.1324 149.702 20.5823C149.84 21.0321 150.024 21.482 150.3 21.8419C150.577 22.2018 150.945 22.5167 151.359 22.7866C151.82 23.0116 152.372 23.1465 153.016 23.1465H162.545V14.9139ZM163.926 19.6375V23.1465H165.676L176.954 14.2391V11H175.021L163.926 19.6375ZM177 19.6825H171.154L166.873 23.1465H177V19.6825ZM163.926 11V14.464H169.45L173.87 11H163.926Z" fill="white"/>
    </g>
    <defs>
        <clipPath id="clip0">
            <rect width="177" height="35" fill="white"/>
        </clipPath>
    </defs>
</svg>
