<svg xmlns="http://www.w3.org/2000/svg" display="none">

    <symbol id="close" viewBox="0 0 12 12">
        <path d="M1 1L11 11M11 1L1 11" stroke-width="2" stroke-linecap="round" stroke-linejoin="round"/>
    </symbol>

    <symbol id="search" viewBox="0 0 17 17">
        <path d="M16.3485 15.6295L12.2176 11.5646C13.2993 10.3893 13.964 8.83495 13.964 7.12455C13.9635 3.46568 10.9498 0.5 7.23188 0.5C3.51401 0.5 0.500305 3.46568 0.500305 7.12455C0.500305 10.7834 3.51401 13.7491 7.23188 13.7491C8.83826 13.7491 10.3116 13.1935 11.4689 12.2697L15.6158 16.3507C15.8179 16.5498 16.146 16.5498 16.348 16.3507C16.5506 16.1517 16.5506 15.8286 16.3485 15.6295ZM7.23188 12.7299C4.08615 12.7299 1.53605 10.2203 1.53605 7.12455C1.53605 4.02881 4.08615 1.51923 7.23188 1.51923C10.3776 1.51923 12.9277 4.02881 12.9277 7.12455C12.9277 10.2203 10.3776 12.7299 7.23188 12.7299Z"/>
    </symbol>

    <symbol id="heart" viewBox="0 0 32 32">
        <g>
            <path d="M29.4153 4.54531C27.7397 2.86967 25.5214 1.95384 23.1538 1.95384C20.7861 1.95384 18.561 2.87646 16.8854 4.55209L16.0102 5.42723L15.1215 4.53853C13.4459 2.86289 11.214 1.93349 8.84638 1.93349C6.48556 1.93349 4.26042 2.85611 2.59157 4.52496C0.915933 6.2006 -0.00668578 8.42574 9.81822e-05 10.7933C9.81822e-05 13.1609 0.929501 15.3793 2.60514 17.0549L15.3454 29.7952C15.5218 29.9716 15.7592 30.0666 15.9899 30.0666C16.2205 30.0666 16.458 29.9784 16.6344 29.802L29.4018 17.0821C31.0774 15.4064 32 13.1813 32 10.8137C32.0068 8.44609 31.091 6.22095 29.4153 4.54531ZM28.1128 15.7863L15.9899 27.8618L3.89409 15.766C2.56443 14.4363 1.83177 12.6725 1.83177 10.7933C1.83177 8.91418 2.55765 7.15035 3.88731 5.82748C5.21018 4.50461 6.97401 3.77194 8.84638 3.77194C10.7255 3.77194 12.4962 4.50461 13.8258 5.83426L15.359 7.36744C15.7185 7.72699 16.2952 7.72699 16.6547 7.36744L18.1743 5.84783C19.504 4.51817 21.2746 3.78551 23.147 3.78551C25.0193 3.78551 26.7832 4.51818 28.1128 5.84105C29.4425 7.1707 30.1684 8.93453 30.1684 10.8137C30.1751 12.6928 29.4425 14.4567 28.1128 15.7863Z"/>
        </g>
    </symbol>

    <symbol id="basket" viewBox="0 0 32 32">
        <g>
            <path d="M10.2078 24.8902C8.36273 24.8902 6.86707 26.3859 6.86707 28.2309C6.86707 30.076 8.3628 31.5716 10.2078 31.5716C12.0529 31.5716 13.5485 30.0759 13.5485 28.2309C13.5486 26.3859 12.0529 24.8902 10.2078 24.8902ZM10.2078 30.0869C9.18278 30.0869 8.35186 29.256 8.35186 28.231C8.35186 27.2059 9.18278 26.375 10.2078 26.375C11.2328 26.375 12.0638 27.2059 12.0638 28.231C12.0638 29.256 11.2328 30.0869 10.2078 30.0869Z"/>
            <path d="M24.3134 24.8902C22.4683 24.8902 20.9727 26.3859 20.9727 28.2309C20.9727 30.076 22.4684 31.5716 24.3134 31.5716C26.1584 31.5716 27.6541 30.0759 27.6541 28.2309C27.6541 26.3859 26.1585 24.8902 24.3134 24.8902ZM24.3134 30.0869C23.2884 30.0869 22.4574 29.256 22.4574 28.231C22.4574 27.2059 23.2884 26.375 24.3134 26.375C25.3384 26.375 26.1693 27.2059 26.1693 28.231C26.1694 29.256 25.3384 30.0869 24.3134 30.0869Z"/>
            <path d="M31.8487 5.40238C31.6941 5.2335 31.4826 5.12777 31.2548 5.10539L7.08988 4.77132L6.42173 2.72972C5.95103 1.36493 4.67299 0.443563 3.22941 0.428288H0.742396C0.332369 0.428288 0 0.760656 0 1.17068C0 1.58071 0.332369 1.91308 0.742396 1.91308H3.22941C4.0366 1.93091 4.74738 2.44921 5.01119 3.21228L9.72539 17.4291L9.35423 18.2828C8.94022 19.3504 9.06456 20.552 9.6883 21.5122C10.3061 22.4554 11.3454 23.0374 12.4723 23.0713H26.9119C27.3219 23.0713 27.6543 22.7389 27.6543 22.3289C27.6543 21.9189 27.3219 21.5865 26.9119 21.5865H12.4722C11.8358 21.5706 11.25 21.2358 10.9132 20.6956C10.5801 20.162 10.5117 19.5047 10.7276 18.9138L11.0246 18.2457L26.652 16.6124C28.3685 16.4233 29.7806 15.1749 30.1784 13.4943L31.9602 6.0333C32.0405 5.81845 31.9978 5.57681 31.8487 5.40238ZM28.7307 13.1603C28.4897 14.2421 27.5712 15.0401 26.4664 15.1277L11.0246 16.7238L7.57245 6.25611L30.3268 6.59018L28.7307 13.1603Z"/>
        </g>
    </symbol>

    <symbol id="heart2" viewBox="0 0 32 32">
        <g>
            <path d="M29.4153 4.61181C27.7397 2.93617 25.5214 2.02034 23.1538 2.02034C20.7861 2.02034 18.561 2.94295 16.8854 4.61859L16.0102 5.49372L15.1215 4.60502C13.4459 2.92939 11.214 1.99998 8.84638 1.99998C6.48556 1.99998 4.26042 2.9226 2.59157 4.59146C0.915933 6.26709 -0.00668578 8.49223 9.81822e-05 10.8598C9.81822e-05 13.2274 0.929501 15.4458 2.60514 17.1214L15.3454 29.8617C15.5218 30.0381 15.7592 30.1331 15.9899 30.1331C16.2205 30.1331 16.458 30.0449 16.6344 29.8685L29.4018 17.1486C31.0774 15.4729 32 13.2478 32 10.8802C32.0068 8.51258 31.091 6.28745 29.4153 4.61181Z"/>
        </g>
    </symbol>

    <symbol id="oil" viewBox="0 0 32 32">
        <path d="M14.4004 10.6757C13.7009 10.6781 13.0843 11.1359 12.8794 11.8048L4.83381 8.35569C3.45129 7.7622 1.84783 8.05663 0.766325 9.10249L0.455301 9.40277C0.163807 9.6845 -0.000493778 10.0729 0.000971015 10.4784C0.0031682 11.0187 0.293197 11.5167 0.761931 11.7855C1.36494 12.1158 2.11442 12.0013 2.59121 11.506L2.66592 11.4315C2.77773 11.318 2.93446 11.2606 3.09291 11.2748C3.25159 11.2887 3.39563 11.3732 3.48571 11.5045L10.1249 21.2439C10.6212 21.9729 11.4461 22.4092 12.3279 22.4087H24.0001C24.4591 22.4084 24.8964 22.2124 25.2018 21.8694L31.6068 14.7598C31.9933 14.3157 32.1048 13.6953 31.8968 13.1443L30.297 8.87789C30.1354 8.44211 29.7912 8.09862 29.3552 7.93822C28.9299 7.78247 28.4587 7.81298 28.0571 8.02196L21.8012 10.6757H19.7337V9.07563C20.6172 9.07563 21.3335 8.35935 21.3335 7.47584C21.3335 6.59208 20.6172 5.87579 19.7337 5.87579H16.5336C15.6501 5.87579 14.9338 6.59208 14.9338 7.47584C14.9338 8.35935 15.6501 9.07563 16.5336 9.07563V10.6757H14.4004ZM21.9096 11.7423C21.9809 11.7423 22.0517 11.7281 22.1174 11.7003L28.4958 8.99629C28.5124 8.98872 28.529 8.9814 28.5449 8.97286C28.6802 8.8984 28.8408 8.88668 28.9856 8.94014C29.1301 8.99385 29.2441 9.10786 29.2981 9.25239L30.8981 13.5188C30.9674 13.6995 30.9333 13.9036 30.809 14.052L24.4064 21.1585C24.3041 21.2757 24.1557 21.3425 24.0001 21.3421H12.3279C11.7987 21.3418 11.3038 21.0801 11.006 20.6429L4.36508 10.9013C4.0958 10.5084 3.6654 10.2563 3.19105 10.2128C2.7167 10.1696 2.24796 10.3398 1.91179 10.6774L1.83709 10.7518C1.69915 10.9032 1.4787 10.9464 1.29365 10.8585C1.1562 10.7809 1.07027 10.6361 1.06758 10.4784C1.06734 10.3617 1.11446 10.2499 1.1982 10.1686L1.50751 9.8698C2.28141 9.12397 3.42663 8.91378 4.41464 9.33661L13.1238 13.0696C13.1936 13.0845 13.2637 13.0989 13.3338 13.1129C13.4031 13.1121 13.4717 13.0982 13.5359 13.0718C13.5935 13.0355 13.6502 12.9979 13.7061 12.9588C13.7454 12.918 13.7778 12.8712 13.802 12.8201C13.8079 12.8089 13.8181 12.8016 13.8228 12.7899C13.8352 12.7525 13.8433 12.7142 13.8469 12.6751C13.8562 12.6444 13.863 12.6126 13.8672 12.5806V12.2757C13.8672 11.9811 14.106 11.7423 14.4004 11.7423H21.9096ZM16.0004 7.47584C16.0004 7.18117 16.2392 6.94241 16.5336 6.94241H19.7337C20.0281 6.94241 20.2669 7.18117 20.2669 7.47584C20.2669 7.77026 20.0281 8.00902 19.7337 8.00902H16.5336C16.2392 8.00902 16.0004 7.77026 16.0004 7.47584ZM17.6002 9.07563H18.6671V10.6757H17.6002V9.07563Z"/>
        <path d="M23.9794 19.2679C24.288 19.3885 24.6393 19.3048 24.8605 19.0577L29.4655 13.9646C29.6662 13.7427 29.7263 13.4273 29.6213 13.147L28.8298 11.0319C28.7544 10.8309 28.6016 10.6688 28.4053 10.5817C28.2092 10.4948 27.9864 10.4901 27.7867 10.569L23.9728 12.0911C23.6669 12.211 23.466 12.5064 23.4667 12.835V18.5213C23.4653 18.8526 23.6696 19.1502 23.9794 19.2679ZM24.5333 13.0159L27.9263 11.6612L28.5664 13.368L24.5333 17.829V13.0159Z"/>
        <path d="M3.73425 26.142C4.73104 26.1645 5.6939 25.7785 6.39895 25.0735C7.10401 24.3684 7.48998 23.4055 7.46728 22.4087C7.46728 20.6691 5.35431 17.8505 4.53989 16.9106C4.33213 16.6865 4.04015 16.5591 3.73449 16.5591C3.4286 16.5591 3.13686 16.6865 2.92886 16.9106C2.11394 17.8505 0.000978458 20.6691 0.000978458 22.4087C-0.0217258 23.4055 0.364247 24.3684 1.0693 25.0735C1.77436 25.7785 2.73721 26.1645 3.73425 26.142ZM3.73425 17.6089C4.80941 18.8498 6.40066 21.2354 6.40066 22.4087C6.42532 23.1231 6.15238 23.8159 5.64678 24.3213C5.14143 24.8269 4.44858 25.0998 3.73425 25.0752C3.01967 25.0998 2.32707 24.8269 1.82147 24.3213C1.31587 23.8159 1.04293 23.1231 1.06759 22.4087C1.06759 21.2354 2.65909 18.8505 3.73425 17.6089Z"/>
        <path d="M16.0005 12.809H15.467C15.1726 12.809 14.9338 13.0477 14.9338 13.3424C14.9338 13.6368 15.1726 13.8756 15.467 13.8756H16.0005C16.2949 13.8756 16.5337 13.6368 16.5337 13.3424C16.5337 13.0477 16.2949 12.809 16.0005 12.809Z"/>
        <path d="M17.6002 13.3424C17.6002 13.6368 17.8392 13.8756 18.1337 13.8756H20.2669C20.5615 13.8756 20.8003 13.6368 20.8003 13.3424C20.8003 13.0477 20.5615 12.809 20.2669 12.809H18.1337C17.8392 12.809 17.6002 13.0477 17.6002 13.3424Z"/>
        <path d="M3.03236 23.9815C3.21327 24.0418 3.41272 24.0008 3.5553 23.874C3.69787 23.7473 3.76232 23.5542 3.72399 23.3675C3.68542 23.1805 3.55041 23.0284 3.36927 22.9681C2.96401 22.8333 2.90102 22.6524 2.88027 22.5948C2.83535 22.2572 2.91811 21.9149 3.1122 21.6349C3.27528 21.3895 3.20863 21.0585 2.96328 20.8954C2.71792 20.7323 2.38688 20.7992 2.2238 21.0446C1.84539 21.5978 1.71723 22.2847 1.87078 22.9373C2.06487 23.4537 2.4982 23.8433 3.03236 23.9815Z"/>
    </symbol>


    <symbol id="arrow-left" viewBox="0 0 7 12">
        <path d="M6 1L1 6L6 11" stroke-width="1.5" stroke-linecap="round" stroke-linejoin="round"/>
    </symbol>

    <symbol id="arrow-right" viewBox="0 0 7 12">
        <path d="M1 11L6 6L1 1" stroke-width="1.5" stroke-linecap="round" stroke-linejoin="round"/>
    </symbol>

    <symbol id="star" viewBox="0 0 20 19">
        <path d="M9.04894 0.927052C9.3483 0.00574112 10.6517 0.00573993 10.9511 0.927051L12.4697 5.60081C12.6035 6.01284 12.9875 6.2918 13.4207 6.2918H18.335C19.3037 6.2918 19.7065 7.53141 18.9228 8.10081L14.947 10.9894C14.5966 11.244 14.4499 11.6954 14.5838 12.1074L16.1024 16.7812C16.4017 17.7025 15.3472 18.4686 14.5635 17.8992L10.5878 15.0106C10.2373 14.756 9.7627 14.756 9.41221 15.0106L5.43648 17.8992C4.65276 18.4686 3.59828 17.7025 3.89763 16.7812L5.41623 12.1074C5.55011 11.6954 5.40345 11.244 5.05296 10.9894L1.07722 8.10081C0.293507 7.53141 0.696283 6.2918 1.66501 6.2918H6.57929C7.01252 6.2918 7.39647 6.01284 7.53035 5.60081L9.04894 0.927052Z"/>
    </symbol>

    <symbol id="fb" viewBox="0 0 28 28">
        <path d="M28 14.0854C28 6.35395 21.7315 0.0854492 14 0.0854492C6.2685 0.0854492 0 6.35395 0 14.0854C0 21.0738 5.11933 26.8651 11.8125 27.9151V18.1326H8.25767V14.0843H11.8125V11.0019C11.8125 7.49378 13.9032 5.55478 17.101 5.55478C18.6317 5.55478 20.2347 5.82895 20.2347 5.82895V9.27412H18.4683C16.7288 9.27412 16.1863 10.3533 16.1863 11.4604V14.0854H20.069L19.4483 18.1338H16.1863V27.9163C22.8807 26.8651 28 21.0726 28 14.0854Z"/>
    </symbol>

    <symbol id="youtube" viewBox="0 0 28 28">
        <g>
            <path d="M27.4155 7.23702C27.2532 6.65544 26.9437 6.12556 26.5167 5.69862C26.0898 5.27167 25.5599 4.96211 24.9783 4.79985C22.7966 4.21535 14.0117 4.21535 14.0117 4.21535C14.0117 4.21535 5.25115 4.20368 3.04615 4.79985C2.46465 4.96239 1.93492 5.27221 1.50818 5.69935C1.08144 6.1265 0.77213 6.65653 0.610151 7.23818C0.196229 9.47213 -0.00804828 11.7399 -1.62214e-05 14.0118C-0.00652451 16.2756 0.197746 18.5351 0.610151 20.761C0.772305 21.3425 1.0817 21.8722 1.50842 22.2992C1.93515 22.7261 2.46479 23.0357 3.04615 23.1982C5.22665 23.7838 14.0128 23.7838 14.0128 23.7838C14.0128 23.7838 22.7722 23.7838 24.9783 23.1982C25.56 23.0358 26.09 22.7261 26.517 22.2989C26.9439 21.8718 27.2534 21.3416 27.4155 20.7598C27.8188 18.5335 28.0141 16.2744 27.9988 14.0118C28.0158 11.7399 27.8206 9.47141 27.4155 7.23585V7.23702ZM11.2093 18.2037V9.80835L18.5197 14.013L11.2093 18.2037Z"/>
        </g>
    </symbol>

    <symbol id="instagram" viewBox="0 0 28 28">
        <path d="M14 0C10.1967 0 9.72183 0.0175 8.2285 0.084C6.7375 0.154 5.7225 0.3885 4.83 0.735C3.9095 1.092 3.12783 1.5715 2.34967 2.34967C1.5715 3.12783 1.09083 3.90833 0.735 4.83C0.3885 5.7225 0.152833 6.7375 0.084 8.2285C0.014 9.72183 0 10.1967 0 14C0 17.8033 0.0175 18.2782 0.084 19.7715C0.154 21.2613 0.3885 22.2775 0.735 23.17C1.092 24.0893 1.5715 24.8722 2.34967 25.6503C3.12783 26.4273 3.90833 26.9092 4.83 27.265C5.72367 27.6103 6.73867 27.8472 8.2285 27.916C9.72183 27.986 10.1967 28 14 28C17.8033 28 18.2782 27.9825 19.7715 27.916C21.2613 27.846 22.2775 27.6103 23.17 27.265C24.0893 26.908 24.8722 26.4273 25.6503 25.6503C26.4273 24.8722 26.9092 24.0928 27.265 23.17C27.6103 22.2775 27.8472 21.2613 27.916 19.7715C27.986 18.2782 28 17.8033 28 14C28 10.1967 27.9825 9.72183 27.916 8.2285C27.846 6.73867 27.6103 5.72133 27.265 4.83C26.908 3.9095 26.4273 3.12783 25.6503 2.34967C24.8722 1.5715 24.0928 1.09083 23.17 0.735C22.2775 0.3885 21.2613 0.152833 19.7715 0.084C18.2782 0.014 17.8033 0 14 0ZM14 2.52C17.7368 2.52 18.1825 2.53867 19.6583 2.60283C21.0233 2.667 21.7642 2.89333 22.2565 3.087C22.9122 3.34017 23.3765 3.6435 23.8688 4.13233C24.3577 4.62233 24.661 5.08783 24.9142 5.7435C25.1055 6.23583 25.3342 6.97667 25.396 8.34167C25.4625 9.81867 25.4777 10.262 25.4777 14C25.4777 17.738 25.4602 18.1825 25.3913 19.6583C25.3202 21.0233 25.0927 21.7642 24.9002 22.2565C24.6388 22.9122 24.3413 23.3765 23.8513 23.8688C23.3625 24.3577 22.89 24.661 22.2413 24.9142C21.7513 25.1055 20.9988 25.3342 19.6338 25.396C18.1475 25.4625 17.71 25.4777 13.965 25.4777C10.2188 25.4777 9.78133 25.4602 8.29617 25.3913C6.93 25.3202 6.1775 25.0927 5.6875 24.9002C5.02367 24.6388 4.5675 24.3413 4.07867 23.8513C3.5875 23.3625 3.27367 22.89 3.02867 22.2413C2.83617 21.7513 2.60983 20.9988 2.53867 19.6338C2.48617 18.1638 2.4675 17.71 2.4675 13.9825C2.4675 10.2538 2.48617 9.79883 2.53867 8.31133C2.60983 6.94633 2.83617 6.195 3.02867 5.705C3.27367 5.04 3.5875 4.585 4.07867 4.09383C4.5675 3.605 5.02367 3.29 5.6875 3.04617C6.1775 2.8525 6.91367 2.625 8.27867 2.555C9.76617 2.5025 10.2037 2.485 13.9475 2.485L14 2.52ZM14 6.811C10.0275 6.811 6.811 10.031 6.811 14C6.811 17.9725 10.031 21.189 14 21.189C17.9725 21.189 21.189 17.969 21.189 14C21.189 10.0275 17.969 6.811 14 6.811ZM14 18.6667C11.4217 18.6667 9.33333 16.5783 9.33333 14C9.33333 11.4217 11.4217 9.33333 14 9.33333C16.5783 9.33333 18.6667 11.4217 18.6667 14C18.6667 16.5783 16.5783 18.6667 14 18.6667ZM23.1537 6.5275C23.1537 7.455 22.4 8.2075 21.4737 8.2075C20.5462 8.2075 19.7937 7.45383 19.7937 6.5275C19.7937 5.60117 20.5473 4.84867 21.4737 4.84867C22.3988 4.8475 23.1537 5.60117 23.1537 6.5275Z"/>
    </symbol>

    <symbol id="view" viewBox="0 0 32 32">
        <path d="M29.8844 15.5822C26.8889 10.0445 21.6355 6.69336 15.8222 6.69336C10.0089 6.69336 4.74665 10.0445 1.77776 15.5822L1.52887 16L1.75998 16.4267C4.75554 21.9645 10.0089 25.3156 15.8222 25.3156C21.6355 25.3156 26.8978 22.0089 29.8844 16.4267L30.1155 16L29.8844 15.5822ZM15.8222 23.4934C10.8178 23.4934 6.2222 20.7022 3.55554 16C6.2222 11.2978 10.8178 8.50669 15.8222 8.50669C20.8266 8.50669 25.3689 11.3067 28.08 16C25.3689 20.7022 20.8178 23.4934 15.8222 23.4934Z"/>
        <path d="M16.08 9.92887C14.8748 9.93767 13.6992 10.3034 12.7017 10.98C11.7042 11.6565 10.9296 12.6135 10.4757 13.73C10.0218 14.8465 9.90893 16.0725 10.1514 17.2531C10.3938 18.4337 10.9807 19.516 11.8379 20.3633C12.6951 21.2106 13.7842 21.7848 14.9675 22.0135C16.1509 22.2422 17.3755 22.1151 18.4866 21.6482C19.5978 21.1813 20.5457 20.3956 21.2105 19.3903C21.8754 18.385 22.2275 17.2052 22.2222 16C22.2187 15.1977 22.057 14.404 21.7462 13.6644C21.4354 12.9247 20.9817 12.2537 20.4111 11.6897C19.8405 11.1257 19.1642 10.6798 18.421 10.3777C17.6778 10.0755 16.8823 9.92302 16.08 9.92887ZM16.08 20.3467C15.2287 20.3379 14.3989 20.0777 13.695 19.5989C12.991 19.1201 12.4442 18.444 12.1232 17.6554C11.8023 16.8668 11.7215 16.001 11.891 15.1667C12.0606 14.3324 12.4728 13.5667 13.0761 12.966C13.6793 12.3652 14.4466 11.956 15.2816 11.7899C16.1167 11.6238 16.9821 11.7081 17.7694 12.0323C18.5566 12.3564 19.2305 12.906 19.7065 13.6119C20.1824 14.3178 20.4392 15.1486 20.4445 16C20.4468 16.573 20.3354 17.1407 20.1167 17.6703C19.898 18.1999 19.5763 18.6808 19.1703 19.0851C18.7644 19.4895 18.2821 19.8092 17.7517 20.0257C17.2212 20.2423 16.653 20.3514 16.08 20.3467Z"/>
    </symbol>


    <symbol id="arrow-collapse" viewBox="0 0 11 18">
        <path d="M1 1L9 9L1 17" stroke-width="2"/>
    </symbol>

</svg>